<?xml version="1.0" encoding="utf-8"?>
<!-- Generator: Adobe Illustrator 17.0.0, SVG Export Plug-In . SVG Version: 6.00 Build 0)  -->
<!DOCTYPE svg PUBLIC "-//W3C//DTD SVG 1.1//EN" "http://www.w3.org/Graphics/SVG/1.1/DTD/svg11.dtd">
<svg version="1.1" id="Layer_1" xmlns="http://www.w3.org/2000/svg" xmlns:xlink="http://www.w3.org/1999/xlink" x="0px" y="0px"
	 width="190px" height="25px" viewBox="0 0 190 25" enable-background="new 0 0 190 25" xml:space="preserve">
<g>
	<g>
		<g>
			<g>
				<g opacity="0.55">
					<g>
						<rect x="111.151" y="19.586" fill="#333333" width="9.701" height="3.998"/>
					</g>
				</g>
				<g opacity="0.55">
					<g>
						<rect x="111.151" y="1.417" fill="#333333" width="9.701" height="3.997"/>
					</g>
				</g>
				<g opacity="0.55">
					<g>
						<rect x="111.15" y="10.501" fill="#333333" width="9.643" height="3.998"/>
					</g>
				</g>
				<polygon fill="#010101" points="26.776,23.584 22.779,23.584 22.779,8.634 26.776,1.417 				"/>
				<g opacity="0.55">
					<g>
						<polygon fill="#333333" points="1.375,1.417 1.375,23.583 5.371,23.583 5.371,8.634 						"/>
					</g>
				</g>
				<polygon fill="#010101" points="14.075,15.992 14.075,24.346 1.375,1.417 5.994,1.417 				"/>
				<g opacity="0.55">
					<g>
						<polygon fill="#333333" points="26.776,1.417 22.157,1.417 14.075,15.992 14.075,24.346 						"/>
					</g>
				</g>
				<polygon fill="#010101" points="83.516,15.992 83.516,24.346 70.816,1.417 75.436,1.417 				"/>
				<g opacity="0.55">
					<g>
						<polygon fill="#333333" points="96.216,1.417 91.598,1.417 83.516,15.992 83.516,24.346 						"/>
					</g>
				</g>
				<polygon fill="#010101" points="136.433,15.262 136.433,15.262 133.786,10.501 139.059,10.501 				"/>
				<rect x="151.995" y="1.417" fill="#010101" width="3.998" height="22.167"/>
				<g opacity="0.55">
					<g>
						<polygon fill="#333333" points="169.693,1.417 169.693,23.583 173.69,23.583 173.69,7.681 						"/>
					</g>
				</g>
				<g opacity="0.55">
					<g>
						<polygon fill="#333333" points="188.625,1.417 184.627,1.417 184.627,17.321 188.625,23.583 						"/>
					</g>
				</g>
				<rect x="107.153" y="1.417" fill="#010101" width="3.997" height="22.167"/>
				<path fill="#010101" d="M50.795,20.349c-4.335,0-7.848-3.513-7.848-7.849c0-4.334,3.513-7.849,7.848-7.849V0.654
					c-6.542,0-11.846,5.304-11.846,11.846c0,6.543,5.304,11.846,11.846,11.846V20.349z"/>
				<g opacity="0.55">
					<g>
						<path fill="#333333" d="M50.795,0.654v3.998c4.335,0,7.849,3.515,7.849,7.849c0,4.335-3.515,7.848-7.849,7.848v3.998
							c6.542,0,11.846-5.304,11.846-11.846C62.641,5.957,57.337,0.654,50.795,0.654"/>
					</g>
				</g>
				<polygon fill="#010101" points="188.625,23.583 183.84,23.583 169.693,1.417 174.478,1.417 				"/>
			</g>
		</g>
	</g>
</g>
</svg>
